<?xml version="1.0" encoding="UTF-8" standalone="no"?><svg xmlns="http://www.w3.org/2000/svg" xmlns:xlink="http://www.w3.org/1999/xlink" fill="#000000" height="55.8" preserveAspectRatio="xMidYMid meet" version="1" viewBox="18.1 4.2 27.7 55.8" width="27.7" zoomAndPan="magnify"><g id="change1_1"><path d="m20.11 36h3.39a.59.59 0 0 1 .59.59v21.41a2 2 0 0 0 2 2h7.79a2 2 0 0 0 2-2v-21.42a.59.59 0 0 1 .59-.59h5.64a2 2 0 0 0 2-1.71l1.31-7.84a2 2 0 0 0 -2-2.39h-6.6a.93.93 0 0 1 -.93-.93v-5a1.8 1.8 0 0 1 2-2h5.91a2 2 0 0 0 2-2v-7.93a2 2 0 0 0 -2-2h-7.03c-13 0-12.67 10.47-12.67 12v7.29a.59.59 0 0 1 -.59.59h-3.4a2 2 0 0 0 -2 2v7.84a2 2 0 0 0 2 2.09z" fill="#2e2e2e"/></g></svg>